<?xml version="1.0" encoding="utf-8"?>
<!-- Generator: Adobe Illustrator 16.0.3, SVG Export Plug-In . SVG Version: 6.00 Build 0)  -->
<!DOCTYPE svg PUBLIC "-//W3C//DTD SVG 1.1//EN" "http://www.w3.org/Graphics/SVG/1.1/DTD/svg11.dtd">
<svg version="1.1" id="Layer_1" xmlns="http://www.w3.org/2000/svg" xmlns:xlink="http://www.w3.org/1999/xlink" x="0px" y="0px"
	 width="634.398px" height="263.199px" viewBox="0 0 634.398 263.199" enable-background="new 0 0 634.398 263.199"
	 xml:space="preserve">
<g>
	<path fill="#DF1F29" d="M337.981,72.231c-4.735,10.155-9.575,20.262-14.188,30.472c-18.16,40.191-35.071,80.901-50.467,122.236
		c-0.652,1.752-1.562,3.498-2.722,4.949c-1.768,2.21-4.213,2.242-6.395,0.436c-0.133-0.109-0.271-0.22-0.38-0.353
		c-4.901-6.018-10.22-11.756-14.518-18.179c-2.07-3.093-2.971-7.451-3.09-11.278c-0.359-11.478-0.56-23.004,0.082-34.461
		c0.851-15.175,2.565-30.302,3.894-45.451c1.033-11.791,2.049-23.584,3.051-35.379c0.087-1.023,0.012-2.061-0.372-3.227
		c-0.352,0.874-0.768,1.729-1.048,2.625c-13.394,42.892-26.787,85.783-40.143,128.686c-2.025,6.506-3.644,13.146-5.885,19.571
		c-1.046,3.001-2.853,5.859-4.834,8.372c-1.453,1.844-3.868,2.599-6.368,1.655c-2.495-0.94-3.637-2.971-3.675-5.443
		c-0.036-2.298,0.08-4.694,0.686-6.894c18.435-66.88,39.072-133.064,62.638-198.326c1.853-5.13,5.115-8.402,10.164-10.237
		c5.669-2.06,11.213-4.474,16.911-6.442c2.647-0.915,5.52-1.491,8.313-1.591c3.355-0.12,5.156,1.835,5.024,5.222
		c-0.285,7.335-0.487,14.698-1.296,21.985c-1.6,14.416-3.539,28.796-5.431,43.178c-1.577,11.984-3.388,23.938-4.915,35.928
		c-2.284,17.928-3.905,35.914-4.078,54.005c-0.002,0.158,0.101,0.317,0.277,0.844c0.42-0.859,0.775-1.465,1.024-2.11
		c18.424-47.888,39.698-94.513,62.336-140.531c1.255-2.55,2.704-5.02,4.245-7.409c2.343-3.634,5.684-5.771,9.919-6.953
		c4.468-1.247,8.714-3.267,13.136-4.706c2.687-0.875,5.497-1.589,8.3-1.843c3.947-0.357,6.122,1.576,5.714,5.47
		c-0.546,5.208-1.656,10.369-2.739,15.505c-6.299,29.882-12.805,59.721-18.961,89.633c-6.471,31.436-12.636,62.935-18.916,94.41
		c-2.043,10.238-4.015,20.489-6.052,30.729c-0.466,2.341-0.571,5.109-3.491,5.813c-3.06,0.737-5.408-0.736-7.58-2.907
		c-3.773-3.77-7.554-7.589-11.729-10.884c-3.819-3.016-5.683-6.069-4.742-11.25c4.468-24.622,8.347-49.352,12.917-73.953
		c4.964-26.719,10.461-53.338,15.718-80.001c0.114-0.582,0.143-1.181,0.212-1.771C338.345,72.328,338.163,72.28,337.981,72.231z"/>
	<path fill="#DF1F29" d="M160.611,101.645c4.411-0.422,8.343-0.895,12.289-1.138c2.044-0.126,4.163-0.101,6.159,0.3
		c3.645,0.731,5.3,3.448,4.055,6.927c-0.691,1.932-1.835,4.104-3.435,5.231c-4.766,3.354-8.699,7.442-11.749,12.297
		c-4.57,7.272-11.191,11.362-19.34,13.226c-1.833,0.419-2.757,1.255-3.374,2.992c-12.626,35.603-25.285,71.193-38.026,106.755
		c-0.602,1.682-1.755,3.413-3.137,4.507c-1.802,1.427-4.415,0.508-6.249-1.359c-3.44-3.505-6.98-6.91-10.483-10.352
		c-0.925-0.908-1.888-1.778-2.795-2.704c-2.879-2.937-3.811-6.104-2.637-10.354c7.195-26.049,16.185-51.496,25.276-76.915
		c0.345-0.964,0.666-1.937,1.188-3.462c-3.462,0.705-6.527,1.293-9.576,1.956c-11.041,2.402-22.071,4.859-33.121,7.22
		c-1.854,0.396-2.893,1.172-3.586,3.078c-8.716,23.997-17.513,47.966-26.384,71.905c-1.007,2.719-2.377,5.369-3.997,7.768
		c-0.957,1.418-2.596,2.571-4.174,3.334c-3.706,1.79-7.513-0.287-7.685-4.387c-0.116-2.77,0.286-5.734,1.209-8.347
		c7.985-22.609,16.141-45.159,24.244-67.727c0.283-0.787,0.556-1.577,0.962-2.734c-7.885-0.631-12.267-6.066-16.659-11.455
		c-1.793-2.201-3.855-3.886-6.68-4.62c-2.746-0.714-4.608-2.564-5.939-5.046c-1.727-3.22-1.321-5.351,2.132-6.642
		c5.236-1.96,10.625-3.546,16.018-5.043c7.977-2.216,15.997-4.279,24.038-6.251c1.73-0.425,2.569-1.208,3.213-2.826
		C74.59,87.081,86.874,56.41,99.135,25.729c1.596-3.992,3.536-7.762,7.399-10.009c1.37-0.798,3.007-1.387,4.575-1.542
		c2.776-0.274,5.035,1.631,4.979,4.402c-0.049,2.442-0.433,5.021-1.325,7.281c-11.435,28.968-22.988,57.889-34.509,86.823
		c-0.346,0.87-0.667,1.751-1.183,3.109c4.563-0.948,8.716-1.856,12.887-2.668c9.822-1.912,19.648-3.811,29.488-5.631
		c1.72-0.318,2.565-1.113,3.237-2.75c10.949-26.654,21.994-53.268,32.979-79.907c1.533-3.717,4.021-5.837,8.057-6.846
		c5.083-1.271,9.964-3.343,14.949-5.021c2.042-0.688,4.093-1.404,6.196-1.836c4.126-0.848,6.655,1.533,5.909,5.704
		c-0.482,2.696-1.285,5.375-2.276,7.932c-9.573,24.694-19.216,49.359-28.837,74.034C161.354,99.591,161.074,100.389,160.611,101.645
		z"/>
	<path fill="#DF1F29" d="M184.862,192.418c0.909-1.992,1.005-4.554-1.201-6.134c-2.183-1.564-4.317-0.572-6.223,0.746
		c-1.328,0.918-2.502,2.06-4.027,3.338c-0.904-2.78-1.62-5.329-2.572-7.786c-0.675-1.744-0.256-2.921,0.832-4.411
		c3.144-4.305,6.551-8.549,8.861-13.3c3.007-6.185,0.067-12.37-6.141-14.784c-8.79-3.418-18.33,2.93-18.066,12.36
		c0.104,3.717,1.317,7.428,2.243,11.086c0.399,1.58,0.359,2.66-0.881,3.893c-2.571,2.556-4.956,5.301-7.382,8
		c-3.346,3.722-5.784,7.921-6.822,12.887c-1.876,8.976,2.582,16.974,10.635,18.838c4.479,1.037,8.542-0.256,12.328-2.59
		c1.57-0.968,3.042-2.096,4.571-3.158c0.742,1.393,1.252,2.705,2.064,3.795c1.258,1.69,2.971,2.767,5.164,1.983
		c2.297-0.82,2.741-2.832,2.334-4.902c-0.411-2.097-1.051-4.188-1.897-6.149c-0.751-1.74-0.401-2.904,0.661-4.42
		C181.406,198.762,183.374,195.681,184.862,192.418z M165.306,197.792c-1.963,1.235-4.124,2.693-6.31,2.872
		c-1.768,0.145-1.705-2.261-1.065-3.536c1.41-2.81,3.149-5.455,4.753-8.167c0.244,0.104,0.487,0.205,0.73,0.308
		c0.651,1.867,1.402,3.706,1.908,5.611C165.573,195.824,165.759,197.506,165.306,197.792z M166.176,167.879
		c-0.221-2.092-0.751-4.215-0.541-6.262c0.114-1.113,1.32-2.358,2.363-3.027c0.527-0.339,2.383,0.245,2.598,0.808
		c0.436,1.144,0.612,2.785,0.087,3.809c-0.912,1.777-2.435,3.242-3.702,4.839C166.713,167.989,166.445,167.934,166.176,167.879z"/>
</g>
<g>
	<path fill="#2D2D2D" d="M445.639,165.15h-11.05v-20.02h-19.24v20.02h-11.05v-47.353h11.05v19.793h19.24v-19.793h11.05V165.15z"/>
	<path fill="#2D2D2D" d="M500.173,141.458c0,3.424-0.591,6.608-1.771,9.555c-1.181,2.947-2.844,5.509-4.988,7.687
		s-4.729,3.884-7.751,5.119c-3.022,1.234-6.376,1.852-10.059,1.852c-3.685,0-7.042-0.617-10.075-1.852
		c-3.034-1.235-5.628-2.941-7.784-5.119s-3.824-4.739-5.005-7.687c-1.181-2.946-1.771-6.131-1.771-9.555
		c0-3.423,0.591-6.608,1.771-9.555s2.849-5.504,5.005-7.671c2.156-2.166,4.75-3.867,7.784-5.102
		c3.033-1.235,6.391-1.853,10.075-1.853c3.683,0,7.036,0.623,10.059,1.868c3.022,1.246,5.606,2.952,7.751,5.119
		s3.808,4.724,4.988,7.67S500.173,138.057,500.173,141.458z M488.928,141.458c0-2.34-0.304-4.447-0.909-6.321
		c-0.607-1.874-1.479-3.461-2.617-4.762c-1.137-1.3-2.529-2.296-4.176-2.989s-3.521-1.04-5.622-1.04
		c-2.124,0-4.015,0.347-5.672,1.04s-3.055,1.689-4.192,2.989c-1.138,1.301-2.01,2.888-2.616,4.762s-0.91,3.981-0.91,6.321
		c0,2.361,0.304,4.479,0.91,6.354s1.479,3.461,2.616,4.762c1.138,1.3,2.535,2.291,4.192,2.974s3.548,1.023,5.672,1.023
		c2.101,0,3.976-0.341,5.622-1.023s3.039-1.674,4.176-2.974c1.138-1.301,2.01-2.888,2.617-4.762
		C488.624,145.938,488.928,143.819,488.928,141.458z"/>
	<path fill="#2D2D2D" d="M530.9,146.07c0.401,0.89,0.785,1.8,1.154,2.732c0.368-0.954,0.758-1.881,1.17-2.781
		c0.411-0.9,0.834-1.773,1.268-2.619l12.155-23.945c0.216-0.412,0.438-0.731,0.666-0.959s0.481-0.396,0.764-0.505
		c0.281-0.108,0.602-0.163,0.959-0.163s0.774,0,1.251,0h8.385v47.32h-9.685v-27.235c0-1.321,0.064-2.751,0.194-4.29l-12.545,24.343
		c-0.39,0.759-0.915,1.333-1.576,1.723s-1.413,0.585-2.259,0.585h-1.495c-0.845,0-1.598-0.195-2.258-0.585
		c-0.662-0.39-1.187-0.964-1.577-1.723l-12.609-24.375c0.086,0.759,0.151,1.512,0.194,2.259c0.044,0.748,0.065,1.436,0.065,2.063
		v27.235h-9.685v-47.32h8.385c0.477,0,0.894,0,1.251,0s0.677,0.055,0.959,0.163c0.281,0.109,0.536,0.277,0.764,0.505
		s0.449,0.547,0.666,0.959l12.188,24.043C530.083,144.324,530.5,145.182,530.9,146.07z"/>
	<path fill="#2D2D2D" d="M596.957,117.798v8.45h-19.435v11.05h14.885v8.125h-14.885V156.7h19.435v8.45h-30.484v-47.353H596.957z"/>
</g>
</svg>
